<svg xmlns="http://www.w3.org/2000/svg" height="800" width="1200" viewBox="-38.999115 -13.962225 337.99233 83.77335"><path d="M240 .009c6.64 0 13.28-.03 19.93.02.61 4.11-3.29 6.49-4.97 9.77-4.01 5.83-5.01 13.07-4.57 19.99-1.48.03-2.94.06-4.41.08.1-3.34-.01-6.72.74-10 1.27-6.3 5.08-11.66 8.91-16.68-5.21.04-10.42.02-15.63.02v-3.2zM63.46 11.399c7.27-1.46 15.6.64 20.34 6.6 3.69 4.23 4.55 10.03 4.59 15.45-11.67.02-23.33.04-35-.01.01-1 .02-3.02.03-4.03 9.95-.42 19.92-.04 29.88-.19-.76-4.08-2.35-8.28-5.84-10.79-7.01-5.2-18.06-3.28-22.92 3.97-5.82 8.39-3.01 22.21 6.81 26.28 7.98 3.28 17.51.67 23.66-5.13.83 1.13 1.65 2.26 2.46 3.39-9.25 9.8-27.69 10.78-36.36-.24-3.9-4.96-5.06-11.63-4.21-17.78 1.1-8.54 8.19-15.79 16.56-17.52zm127.35 5.34c2.59-3.43 6.91-5.02 11.03-5.65 6.38-.61 13.35-.69 18.91 2.99 3.88 2.28 6.2 6.61 6.25 11.07-1.7.02-3.4.03-5.09.03-.4-2.51-1.17-5.16-3.32-6.75-4.93-3.78-11.73-3.79-17.55-2.52-3.37.73-7.07 3.11-7.08 6.94-.14 3.06 2.74 4.95 5.29 5.86 7.58 2.64 16.24 1.44 23.33 5.65 6.66 3.76 5.83 14.98-.99 18.14-7.83 4.04-17.65 3.96-25.7.55-5.17-2.11-8.23-7.38-8.48-12.83 1.64 0 3.29.01 4.94.01.44 3.34 1.97 6.69 5.1 8.29 5.8 3.15 13.03 3.26 19.19 1.14 3.27-1.05 6.01-4.29 5.4-7.87-.82-3.24-4.12-4.78-7.07-5.55-7.29-1.86-15.44-1.14-22-5.32-4.69-2.95-5.16-9.88-2.16-14.18zM6.14 19.109c5.75-5.46 13.88-9.25 21.91-7.26 5.87.77 10.4 6.06 10.73 11.89.49 9.97.1 19.97.21 29.95h-4.98c-.1-9.25.16-18.5-.13-27.74-.12-4.2-2.57-8.64-6.95-9.55-8-2.28-15.24 3.27-20.76 8.38 0-1.89-.01-3.78-.03-5.67zm135.26-6.87c1.65 0 3.29.01 4.94.03.07 9.54-.14 19.09.09 28.63.05 4.39 3.18 8.64 7.66 9.26 7.77 1.62 14.66-3.52 19.92-8.6-.09 1.94.27 3.97-.3 5.86-4.88 4.85-11.76 8.13-18.76 7.37-4.29-.21-8.72-2-11.15-5.68-2.22-3.3-2.57-7.42-2.44-11.29.06-8.52-.02-17.05.04-25.58zm34.25.05c1.72-.03 3.44-.05 5.17-.07.03 13.82.02 27.64.01 41.46-1.72 0-3.44.01-5.15.01-.05-13.8.01-27.6-.03-41.4zM0 14.499c1.61.01 3.22.02 4.83.04.01 13.77.01 27.54.01 41.31H0z" fill="#5c6064"/><path d="M89.74 12.389c2.2-.06 4.4-.08 6.6-.11 5.23 5.25 10.09 10.86 15.36 16.07.04 1.16.08 2.32.11 3.48l-3.49.03c-6.23-6.46-12.34-13.03-18.58-19.47z" fill="#47c6f4"/><path d="M128.05 13.849c1.87-2.63 5.4-1.19 8.07-1.56-5.95 6.61-12.2 12.94-18.17 19.54-.87 0-2.61.02-3.48.03-.01-.82-.02-2.46-.03-3.29 4.44-4.99 9.1-9.79 13.61-14.72z" fill="#eb1552"/><path d="M108.3 34.839c1.16.01 2.32.01 3.48.02-.01.78-.02 2.33-.03 3.11-4.93 5.15-9.79 10.37-14.61 15.63-2.19.02-4.38.02-6.57 0 5.85-6.3 11.75-12.56 17.73-18.76z" fill="#ffc423"/><path d="M114.42 34.849c.89 0 2.66-.01 3.54-.02 5.87 6.21 11.74 12.43 17.47 18.77-2.56-.33-6.01 1.17-7.85-1.23-4.35-4.86-8.83-9.58-13.17-14.45 0-.76.01-2.3.01-3.07z" fill="#6cbe6e"/></svg>